PathFileType	4	(X/Y/Z)	Demo_SinglePerson_0-995.trc
DataRate	CameraRate	NumFrames	NumMarkers	Units	OrigDataRate	OrigDataStartFrame	OrigNumFrames
30	30	6	22	m	30	373	995
Frame#	Time	Hip			RHip			RKnee			RAnkle			RBigToe			RSmallToe			RHeel			LHip			LKnee			LAnkle			LBigToe			LSmallToe			LHeel			Neck			Head			Nose			RShoulder			RElbow			RWrist			LShoulder			LElbow			LWrist		
		X1	Y1	Z1	X2	Y2	Z2	X3	Y3	Z3	X4	Y4	Z4	X5	Y5	Z5	X6	Y6	Z6	X7	Y7	Z7	X8	Y8	Z8	X9	Y9	Z9	X10	Y10	Z10	X11	Y11	Z11	X12	Y12	Z12	X13	Y13	Z13	X14	Y14	Z14	X15	Y15	Z15	X16	Y16	Z16	X17	Y17	Z17	X18	Y18	Z18	X19	Y19	Z19	X20	Y20	Z20	X21	Y21	Z21	X22	Y22	Z22
373	12.433333333333334	0.23497400183182762	0.9845367135308464	0.23150658202983107	0.22424519340620666	0.991924259855598	0.3343985286828551	0.2057466983331512	0.5129927860423262	0.35297825538131744	0.20655365244628843	0.10262059419708873	0.35819722671451626	0.38039959663320055	0.04505957486166477	0.3683743354275044	0.35676510340968026	0.04881518406255811	0.4151337508972495	0.17770910612648746	0.03996250540679576	0.3365634179853815	0.2341938224775554	0.9875635847594981	0.10655549044807387	0.2258319965140403	0.5091463579848318	0.106867997512542	0.24481200001176243	0.10075361464012929	0.10674714966049816	0.4490788732882161	0.02928695257791301	0.07725679595671837	0.3915019645519624	0.02676414450775398	0.018379802610097414	0.22210592732033133	0.036327774802971946	0.1313333811954328	0.22615224820040752	1.550574875532611	0.2364089479573596	0.3879809084567819	1.8328988673911095	0.2193970925307338	0.4190009649520347	1.6977588408748219	0.2440910512968909	0.20694754361287832	1.522246633309099	0.4066792780688874	0.2895178774772961	1.6779872337736361	0.5934859511750139	0.3844479021663131	1.9028021656466239	0.5917625419442849	0.20245062762991256	1.5214999666663007	0.04943100018054973	0.27589129782153443	1.7097646971353095	-0.12222252893531325	0.36274904670750285	1.9201082567595633	-0.14360977029548852
374	12.466666666666667	0.2358792328144467	0.984368881999485	0.23371326508615764	0.224863269918933	0.9917654857337597	0.33695250117670267	0.20402966966235378	0.5145139632732554	0.35531304070125036	0.20725038843070984	0.1037290190394913	0.3531172223250993	0.38394215781309654	0.04335374503493803	0.3705369244264756	0.3603258095202675	0.04692012129772581	0.4142075331596429	0.17581979757122948	0.04164039707020686	0.334283287051657	0.23329038131250507	0.987438424294435	0.1122093774545326	0.22924143022544885	0.5091201454611032	0.10807174180196528	0.2430903847725007	0.10024131295998984	0.10548985150113874	0.44797399418337436	0.0287656252286444	0.0754153948227332	0.39055549336164114	0.02855564132572199	0.01801296799591973	0.22037513515152046	0.03573433446269694	0.13012713405965443	0.22701624513957047	1.5520391331701664	0.23774527620420627	0.3895978124668904	1.8331786203093663	0.21800663381831079	0.4229323034105132	1.700469540955977	0.2414250845995169	0.2093787817728566	1.5279198120732174	0.41136763724785047	0.28980390399747924	1.6733095363639805	0.5971467440295628	0.3871329524950987	1.8967423473561384	0.5988298918409186	0.20648509530101256	1.5216413934022914	0.05468436310923474	0.2698092176605838	1.7031202099869256	-0.12335195614407755	0.36389775789299095	1.913711726501983	-0.14630746565374675
375	12.5	0.2353675317018027	0.9867742875651022	0.23543301365324118	0.2220362826167678	0.9942260064309666	0.3421128368357232	0.2063071552125519	0.5146155172947473	0.3517797944626681	0.20705286971609918	0.10451985754098053	0.3551884534134079	0.3826964680756454	0.04650691861395137	0.3712954421928524	0.3566275751429501	0.04911301665188162	0.41921192621584197	0.18057966232243192	0.03905302059514361	0.33435355157483654	0.23274354281612242	0.9896237367413366	0.1145357081094187	0.2287481375940597	0.5099181021607078	0.10947680171626299	0.24244569942292585	0.09674931695894196	0.10548597870142591	0.4510023623121333	0.028807037178805037	0.07029398825255459	0.39115583223964	0.02924432821787542	0.015980978149626283	0.22206364329232753	0.03191978133489037	0.1271052772037912	0.2265806040746931	1.553324287455395	0.23960599851738357	0.39070571696544304	1.8356131361002141	0.221925178066809	0.42403139967278325	1.6992434594976853	0.23949446346068037	0.20920605874494613	1.5254276323294125	0.4124814664451948	0.28928351028514027	1.672597048479884	0.596435798411109	0.3851757749440675	1.8964061967102595	0.6022217457179996	0.20532023610099567	1.522873542039364	0.05091367922009105	0.2709706001185514	1.6992385575187081	-0.13387736701532058	0.36192194211734197	1.9110084726426397	-0.15811570403672273
376	12.533333333333333	0.23379704570603305	0.9856827706817197	0.23026257243267423	0.22270934523131908	0.9954564264800504	0.3412777000304367	0.2044613485571818	0.5127315141424184	0.3541838818867937	0.20764109393544997	0.10313852833842849	0.3512465618180447	0.38358220788610264	0.045205426710669426	0.37029263858711825	0.3584269312808456	0.0484730160306022	0.4149494532623015	0.18119444654884645	0.037952171755562945	0.33386397050296435	0.233801206017702	0.9884610792653081	0.11304349761715121	0.22992772876526044	0.5078038676848611	0.10777164800829174	0.24650727541829687	0.09486304291503454	0.1072300908272956	0.45021742824671	0.027879841325096414	0.07142088706194392	0.3959237515758723	0.02672910387990635	0.016967528217596305	0.2230346669735734	0.032772590371252276	0.12426668295401899	0.22515465834731102	1.5512171137690325	0.24168014470792873	0.3944723099729698	1.8349313356919212	0.2164459576599271	0.4305173585543447	1.6969141913334567	0.23809295899295913	0.2096238563170927	1.5276891064948155	0.41132973471481515	0.29150368857130415	1.6652563033916987	0.6001888648171736	0.3862541250163202	1.8899001547629348	0.6143992747825623	0.20427215628437634	1.522720193733109	0.05144757321086961	0.2705077139824683	1.6936817478227906	-0.1341265073284158	0.3623278447948963	1.9025075960407307	-0.1646076173385905
377	12.566666666666666	0.236561825541712	0.9909354741818838	0.2332909120255775	0.22327941407299629	0.9962581946910322	0.34007242319966174	0.20503814141650928	0.5145403634615786	0.35231716071384084	0.20831096069457342	0.10399419655590862	0.3519047294076139	0.38975365828935243	0.039651491593012816	0.3620415796214099	0.3665213286248906	0.045761280377329634	0.4071940474085209	0.17696169284629787	0.037879920152771224	0.33306896612863746	0.2338017029359825	0.9916464213909197	0.11263212590402846	0.22980503014507256	0.5098595182973619	0.10650408953771846	0.24665359592269162	0.09799260466842524	0.11016057536745114	0.45308970158798423	0.028335600143279863	0.07603038444310377	0.39884098738609197	0.02718108098158667	0.021569700069026466	0.22321950057000128	0.03390994399423774	0.1256507488032563	0.2275547011285094	1.5554420556889323	0.23553228792497724	0.39173324034744833	1.83572792882619	0.21341650160066053	0.43308008822761257	1.700953050202273	0.2392498209769315	0.20588541959706855	1.526682555987151	0.41101848976106314	0.286747207359886	1.6582990312876673	0.6059834361432145	0.38795537567182425	1.8853801290996242	0.6231076456734203	0.20415017305863703	1.5204124905619076	0.050291945876521145	0.26825628857966793	1.688168107817847	-0.14170945310067767	0.3635306096948823	1.89707480512736	-0.17619944892144582
378	12.6	0.23442264391307754	0.9900582931898847	0.23329660397152724	0.22125271603848565	0.9994140550044069	0.33989422322630025	0.20555914183729007	0.516504560799373	0.3481520806796717	0.2063959660365215	0.10365795158590539	0.35497966958893323	0.3897708364279844	0.04300119630947909	0.36464357740063325	0.3642002424690002	0.04589041123196322	0.412350022816254	0.17988059585732077	0.03593831762019627	0.332426949340421	0.23361014779875283	0.9925648093202095	0.10915348437167961	0.23255992588257587	0.5096217232125744	0.10741160443952188	0.24420305043664997	0.09954065629111788	0.10850388579673695	0.45255481394558716	0.03197129166551048	0.073478179763804	0.3949473534034734	0.029489761449631363	0.014857519516891383	0.22377326831154473	0.03270040963251082	0.1283950416756168	0.22799446218686306	1.5554165717760566	0.2394623140780768	0.39156979670445036	1.8370633023230436	0.21047267705498376	0.43570710284885783	1.6990748212970463	0.2412894655414889	0.20609934991660905	1.5249889573334672	0.4135954874573941	0.2898830416432289	1.6541824721145764	0.6062952735257859	0.38923087367793097	1.8787561347969761	0.6309164023756753	0.2066703060646722	1.5226448920164712	0.050186037299788204	0.2677355112980866	1.687806359500415	-0.14289740492514616	0.365214329864207	1.8971928568312528	-0.18864775298916667
